<?xml version="1.0" encoding="UTF-8" standalone="no"?>
<!DOCTYPE svg PUBLIC "-//W3C//DTD SVG 1.1//EN" "http://www.w3.org/Graphics/SVG/1.1/DTD/svg11.dtd">
<svg version="1.1" xmlns="http://www.w3.org/2000/svg" xmlns:xlink="http://www.w3.org/1999/xlink" preserveAspectRatio="xMidYMid meet" viewBox="0 0 640 640" width="24" height="24"><defs><path d="M327.59 23.08L336.62 23.93L345.54 25.11L354.34 26.62L363.02 28.44L371.57 30.57L379.98 33L388.24 35.73L396.35 38.74L404.3 42.04L412.08 45.62L419.69 49.47L427.12 53.57L434.35 57.94L441.39 62.55L448.23 67.41L454.86 72.5L461.27 77.82L467.45 83.36L473.4 89.12L479.12 95.09L484.58 101.26L489.8 107.63L494.75 114.19L499.44 120.93L503.85 127.84L507.98 134.93L511.82 142.17L515.36 149.58L518.6 157.13L521.53 164.82L524.14 172.65L526.43 180.61L528.38 188.7L530 196.9L531.26 205.2L532.18 213.61L532.73 222.12L532.92 230.72L532.51 242.57L531.3 254.67L529.33 267L526.66 279.52L523.31 292.2L519.33 305.02L514.77 317.95L509.66 330.95L504.04 344.01L497.97 357.09L491.47 370.16L484.6 383.19L477.4 396.16L469.89 409.04L462.14 421.8L454.18 434.4L446.05 446.83L437.79 459.05L429.45 471.04L421.07 482.76L412.69 494.18L404.35 505.29L396.1 516.05L387.97 526.42L380 536.39L372.25 545.93L364.75 555L357.54 563.57L350.67 571.63L344.18 579.13L338.1 586.06L332.49 592.37L327.38 598.05L322.82 603.07L318.84 607.39L315.49 611L312.81 613.85L310.85 615.92L309.64 617.18L309.23 617.61L308.81 617.18L307.6 615.92L305.64 613.85L302.96 611L299.61 607.39L295.64 603.07L291.07 598.05L285.96 592.37L280.35 586.06L274.27 579.13L267.78 571.63L260.91 563.57L253.7 555L246.2 545.93L238.45 536.39L230.49 526.42L222.36 516.05L214.1 505.29L205.76 494.18L197.38 482.76L189 471.04L180.66 459.05L172.4 446.83L164.27 434.4L156.31 421.8L148.56 409.04L141.06 396.16L133.85 383.19L126.98 370.16L120.48 357.09L114.41 344.01L108.8 330.95L103.69 317.95L99.12 305.02L95.14 292.2L91.79 279.52L89.12 267L87.15 254.67L85.94 242.57L85.53 230.72L85.72 222.12L86.27 213.61L87.19 205.2L88.46 196.9L90.07 188.7L92.02 180.61L94.31 172.65L96.92 164.82L99.85 157.13L103.09 149.58L106.64 142.17L110.48 134.93L114.6 127.84L119.01 120.93L123.7 114.19L128.65 107.63L133.87 101.26L139.34 95.09L145.05 89.12L151 83.36L157.19 77.82L163.6 72.5L170.22 67.41L177.06 62.55L184.1 57.94L191.34 53.57L198.76 49.47L206.37 45.62L214.15 42.04L222.1 38.74L230.21 35.73L238.47 33L246.88 30.57L255.43 28.44L264.11 26.62L272.91 25.11L281.83 23.93L290.86 23.08L300 22.56L309.23 22.39L318.46 22.56L327.59 23.08ZM302.68 156.56L299.46 156.87L296.27 157.29L293.13 157.83L290.03 158.48L286.98 159.24L283.98 160.11L281.03 161.08L278.14 162.16L275.3 163.34L272.52 164.62L269.8 166L267.15 167.47L264.57 169.03L262.05 170.68L259.61 172.41L257.24 174.23L254.95 176.13L252.74 178.11L250.62 180.17L248.57 182.31L246.62 184.51L244.76 186.78L242.98 189.13L241.31 191.53L239.73 194L238.26 196.53L236.88 199.12L235.62 201.76L234.46 204.46L233.41 207.21L232.48 210L231.66 212.84L230.96 215.73L230.38 218.65L229.93 221.62L229.6 224.62L229.4 227.65L229.33 230.72L229.4 233.78L229.6 236.82L229.93 239.82L230.38 242.78L230.96 245.71L231.66 248.59L232.48 251.43L233.41 254.23L234.46 256.97L235.62 259.67L236.88 262.31L238.26 264.9L239.73 267.43L241.31 269.9L242.98 272.31L244.76 274.65L246.62 276.92L248.57 279.13L250.62 281.26L252.74 283.32L254.95 285.3L257.24 287.2L259.61 289.02L262.05 290.76L264.57 292.41L267.15 293.97L269.8 295.44L272.52 296.81L275.3 298.09L278.14 299.27L281.03 300.35L283.98 301.32L286.98 302.19L290.03 302.96L293.13 303.61L296.27 304.15L299.46 304.57L302.68 304.87L305.93 305.06L309.23 305.12L312.52 305.06L315.77 304.87L319 304.57L322.18 304.15L325.32 303.61L328.42 302.96L331.47 302.19L334.47 301.32L337.42 300.35L340.31 299.27L343.15 298.09L345.93 296.81L348.65 295.44L351.3 293.97L353.88 292.41L356.4 290.76L358.84 289.02L361.21 287.2L363.5 285.3L365.71 283.32L367.84 281.26L369.88 279.13L371.83 276.92L373.7 274.65L375.47 272.31L377.14 269.9L378.72 267.43L380.2 264.9L381.57 262.31L382.84 259.67L383.99 256.97L385.04 254.23L385.98 251.43L386.79 248.59L387.49 245.71L388.07 242.78L388.52 239.82L388.85 236.82L389.05 233.78L389.12 230.72L389.05 227.65L388.85 224.62L388.52 221.62L388.07 218.65L387.49 215.73L386.79 212.84L385.98 210L385.04 207.21L383.99 204.46L382.84 201.76L381.57 199.12L380.2 196.53L378.72 194L377.14 191.53L375.47 189.13L373.7 186.78L371.83 184.51L369.88 182.31L367.84 180.17L365.71 178.11L363.5 176.13L361.21 174.23L358.84 172.41L356.4 170.68L353.88 169.03L351.3 167.47L348.65 166L345.93 164.62L343.15 163.34L340.31 162.16L337.42 161.08L334.47 160.11L331.47 159.24L328.42 158.48L325.32 157.83L322.18 157.29L319 156.87L315.77 156.56L312.52 156.38L309.23 156.31L305.93 156.38L302.68 156.56Z" id="g2n7CDm0RD"></path></defs><g><g><g><use xlink:href="#g2n7CDm0RD" opacity="1" fill="#05386b" fill-opacity="1"></use><g><use xlink:href="#g2n7CDm0RD" opacity="1" fill-opacity="0" stroke="#000000" stroke-width="1" stroke-opacity="0"></use></g></g></g></g></svg>